{
    "asset" : {
        "generator" : "Khronos glTF Blender I/O v1.6.16",
        "version" : "2.0"
    },
    "extensionsUsed" : [
        "KHR_lights_punctual"
    ],
    "extensionsRequired" : [
        "KHR_lights_punctual"
    ],
    "extensions" : {
        "KHR_lights_punctual" : {
            "lights" : [
                {
                    "color" : [
                        0.47703078389167786,
                        0.4216821491718292,
                        1
                    ],
                    "intensity" : 7500,
                    "spot" : {
                        "innerConeAngle" : 1.3767873995582036,
                        "outerConeAngle" : 1.5707963705062866
                    },
                    "type" : "spot",
                    "name" : "Light.012"
                },
                {
                    "color" : [
                        0.47703078389167786,
                        0.4216821491718292,
                        1
                    ],
                    "intensity" : 7500,
                    "spot" : {
                        "innerConeAngle" : 1.3767873995582036,
                        "outerConeAngle" : 1.5707963705062866
                    },
                    "type" : "spot",
                    "name" : "Light.013"
                },
                {
                    "color" : [
                        0.47703078389167786,
                        0.4216821491718292,
                        1
                    ],
                    "intensity" : 7500,
                    "spot" : {
                        "innerConeAngle" : 1.3767873995582036,
                        "outerConeAngle" : 1.5707963705062866
                    },
                    "type" : "spot",
                    "name" : "Light.015"
                },
                {
                    "color" : [
                        0.47703078389167786,
                        0.4216821491718292,
                        1
                    ],
                    "intensity" : 7500,
                    "spot" : {
                        "innerConeAngle" : 1.3767873995582036,
                        "outerConeAngle" : 1.5707963705062866
                    },
                    "type" : "spot",
                    "name" : "Light.016"
                },
                {
                    "color" : [
                        0.47703078389167786,
                        0.4216821491718292,
                        1
                    ],
                    "intensity" : 7500,
                    "spot" : {
                        "innerConeAngle" : 1.3767873995582036,
                        "outerConeAngle" : 1.5707963705062866
                    },
                    "type" : "spot",
                    "name" : "Light.017"
                },
                {
                    "color" : [
                        0.47703078389167786,
                        0.4216821491718292,
                        1
                    ],
                    "intensity" : 7500,
                    "spot" : {
                        "innerConeAngle" : 1.3767873995582036,
                        "outerConeAngle" : 1.5707963705062866
                    },
                    "type" : "spot",
                    "name" : "Light.018"
                }
            ]
        }
    },
    "scene" : 0,
    "scenes" : [
        {
            "name" : "Scene",
            "nodes" : [
                1,
                3,
                4,
                6,
                8,
                10,
                12,
                14
            ]
        }
    ],
    "nodes" : [
        {
            "extensions" : {
                "KHR_lights_punctual" : {
                    "light" : 0
                }
            },
            "name" : "Light_Orientation_Orientation",
            "rotation" : [
                -0.7071067690849304,
                0,
                0,
                0.7071067690849304
            ]
        },
        {
            "children" : [
                0
            ],
            "name" : "Light_Orientation",
            "translation" : [
                0,
                20,
                0
            ]
        },
        {
            "name" : "Camera_Orientation"
        },
        {
            "children" : [
                2
            ],
            "name" : "Camera",
            "rotation" : [
                0.501563310623169,
                0.5015633702278137,
                -0.4984317719936371,
                0.4984317719936371
            ],
            "translation" : [
                9.299177169799805,
                0,
                0
            ]
        },
        {
            "mesh" : 0,
            "name" : "Icosphere",
            "scale" : [
                0.7532526850700378,
                0.7532526850700378,
                0.7532526850700378
            ]
        },
        {
            "extensions" : {
                "KHR_lights_punctual" : {
                    "light" : 1
                }
            },
            "name" : "Light_Orientation.001_Orientation",
            "rotation" : [
                -0.7071067690849304,
                0,
                0,
                0.7071067690849304
            ]
        },
        {
            "children" : [
                5
            ],
            "name" : "Light_Orientation.001",
            "rotation" : [
                0,
                0,
                -0.999984622001648,
                0.0055554695427417755
            ],
            "translation" : [
                0,
                -20,
                0
            ]
        },
        {
            "extensions" : {
                "KHR_lights_punctual" : {
                    "light" : 2
                }
            },
            "name" : "Light_Orientation.002_Orientation",
            "rotation" : [
                -0.7071067690849304,
                0,
                0,
                0.7071067690849304
            ]
        },
        {
            "children" : [
                7
            ],
            "name" : "Light_Orientation.002",
            "rotation" : [
                -0.7066593170166016,
                0,
                0,
                0.7075539827346802
            ],
            "translation" : [
                0,
                0,
                -20
            ]
        },
        {
            "extensions" : {
                "KHR_lights_punctual" : {
                    "light" : 3
                }
            },
            "name" : "Light_Orientation.003_Orientation",
            "rotation" : [
                -0.7071067690849304,
                0,
                0,
                0.7071067690849304
            ]
        },
        {
            "children" : [
                9
            ],
            "name" : "Light_Orientation.003",
            "rotation" : [
                0.7075921893119812,
                0,
                0,
                0.7066210508346558
            ],
            "translation" : [
                0,
                0,
                20
            ]
        },
        {
            "extensions" : {
                "KHR_lights_punctual" : {
                    "light" : 4
                }
            },
            "name" : "Light_Orientation.004_Orientation",
            "rotation" : [
                -0.7071067690849304,
                0,
                0,
                0.7071067690849304
            ]
        },
        {
            "children" : [
                11
            ],
            "name" : "Light_Orientation.004",
            "rotation" : [
                0,
                0,
                -0.7080373167991638,
                -0.7061750888824463
            ],
            "translation" : [
                -20,
                0,
                0
            ]
        },
        {
            "extensions" : {
                "KHR_lights_punctual" : {
                    "light" : 5
                }
            },
            "name" : "Light_Orientation.005_Orientation",
            "rotation" : [
                -0.7071067690849304,
                0,
                0,
                0.7071067690849304
            ]
        },
        {
            "children" : [
                13
            ],
            "name" : "Light_Orientation.005",
            "rotation" : [
                0,
                0,
                -0.7064800262451172,
                0.7077330350875854
            ],
            "translation" : [
                20,
                0,
                0
            ]
        }
    ],
    "animations" : [
        {
            "channels" : [
                {
                    "sampler" : 0,
                    "target" : {
                        "node" : 4,
                        "path" : "rotation"
                    }
                }
            ],
            "name" : "IcosphereAction.001",
            "samplers" : [
                {
                    "input" : 4,
                    "interpolation" : "LINEAR",
                    "output" : 5
                }
            ]
        }
    ],
    "materials" : [
        {
            "doubleSided" : true,
            "name" : "Material.003",
            "pbrMetallicRoughness" : {
                "baseColorFactor" : [
                    0.5894091129302979,
                    0.6983100771903992,
                    0.8000000715255737,
                    1
                ],
                "roughnessFactor" : 0
            }
        }
    ],
    "meshes" : [
        {
            "name" : "Icosphere.002",
            "primitives" : [
                {
                    "attributes" : {
                        "POSITION" : 0,
                        "NORMAL" : 1,
                        "TEXCOORD_0" : 2
                    },
                    "indices" : 3,
                    "material" : 0
                }
            ]
        }
    ],
    "accessors" : [
        {
            "bufferView" : 0,
            "componentType" : 5126,
            "count" : 714,
            "max" : [
                0.8944249749183655,
                1,
                0.8506399989128113
            ],
            "min" : [
                -0.8944249749183655,
                -1,
                -0.8506399989128113
            ],
            "type" : "VEC3"
        },
        {
            "bufferView" : 1,
            "componentType" : 5126,
            "count" : 714,
            "type" : "VEC3"
        },
        {
            "bufferView" : 2,
            "componentType" : 5126,
            "count" : 714,
            "type" : "VEC2"
        },
        {
            "bufferView" : 3,
            "componentType" : 5123,
            "count" : 1140,
            "type" : "SCALAR"
        },
        {
            "bufferView" : 4,
            "componentType" : 5126,
            "count" : 540,
            "max" : [
                22.5
            ],
            "min" : [
                0.041666666666666664
            ],
            "type" : "SCALAR"
        },
        {
            "bufferView" : 5,
            "componentType" : 5126,
            "count" : 540,
            "type" : "VEC4"
        }
    ],
    "bufferViews" : [
        {
            "buffer" : 0,
            "byteLength" : 8568,
            "byteOffset" : 0
        },
        {
            "buffer" : 0,
            "byteLength" : 8568,
            "byteOffset" : 8568
        },
        {
            "buffer" : 0,
            "byteLength" : 5712,
            "byteOffset" : 17136
        },
        {
            "buffer" : 0,
            "byteLength" : 2280,
            "byteOffset" : 22848
        },
        {
            "buffer" : 0,
            "byteLength" : 2160,
            "byteOffset" : 25128
        },
        {
            "buffer" : 0,
            "byteLength" : 8640,
            "byteOffset" : 27288
        }
    ],
    "buffers" : [
        {
            "byteLength" : 35928,
            "uri" : "data:application/octet-stream;base64,"
        }
    ]
}
