{
    "asset" : {
        "copyright" : "Lucis",
        "generator" : "Khronos glTF Blender I/O v1.4.40",
        "version" : "2.0"
    },
    "extensionsUsed" : [
        "KHR_lights_punctual"
    ],
    "extensionsRequired" : [
        "KHR_lights_punctual"
    ],
    "extensions" : {
        "KHR_lights_punctual" : {
            "lights" : [
                {
                    "color" : [
                        0.47703078389167786,
                        0.4216821491718292,
                        1
                    ],
                    "intensity" : 30000,
                    "spot" : {
                        "innerConeAngle" : 0.24093780798340525,
                        "outerConeAngle" : 0.27488937973976135
                    },
                    "type" : "spot",
                    "name" : "Light"
                }
            ]
        }
    },
    "scene" : 0,
    "scenes" : [
        {
            "extras" : {
                "glTF2ExportSettings" : {
                    "export_apply" : 1,
                    "export_cameras" : 1,
                    "export_copyright" : "Lucis",
                    "export_current_frame" : 1,
                    "export_extras" : 1,
                    "export_format" : "GLTF_EMBEDDED",
                    "export_frame_step" : 10,
                    "export_lights" : 1,
                    "export_skins" : 1,
                    "export_tangents" : 1,
                    "export_texture_dir" : "",
                    "export_yup" : 1
                }
            },
            "name" : "Scene",
            "nodes" : [
                1,
                3,
                6
            ]
        }
    ],
    "nodes" : [
        {
            "extensions" : {
                "KHR_lights_punctual" : {
                    "light" : 0
                }
            },
            "name" : "Light_Orientation",
            "rotation" : [
                -0.7071067690849304,
                0,
                0,
                0.7071067690849304
            ]
        },
        {
            "children" : [
                0
            ],
            "name" : "Light",
            "rotation" : [
                0.16907575726509094,
                0.7558803558349609,
                -0.27217137813568115,
                0.570947527885437
            ],
            "translation" : [
                22.8317928314209,
                32.21864318847656,
                -8.237261772155762
            ]
        },
        {
            "camera" : 0,
            "name" : "Camera_Orientation",
            "rotation" : [
                -0.7071067690849304,
                0,
                0,
                0.7071067690849304
            ]
        },
        {
            "children" : [
                2
            ],
            "name" : "Camera",
            "rotation" : [
                0.501563310623169,
                0.5015633702278137,
                -0.4984317719936371,
                0.4984317719936371
            ],
            "translation" : [
                33.13811492919922,
                0,
                0
            ]
        },
        {
            "name" : "ReflectionPlane.014",
            "rotation" : [
                0,
                0,
                0.7071068286895752,
                0.7071068286895752
            ],
            "scale" : [
                1.9521979093551636,
                1.9521970748901367,
                1.9521969556808472
            ],
            "translation" : [
                -0.04539605602622032,
                -0.3997684121131897,
                0.8716064095497131
            ]
        },
        {
            "name" : "ReflectionPlane.015",
            "rotation" : [
                0,
                0,
                -0.7071068286895752,
                0.7071068286895752
            ],
            "scale" : [
                1.9521976709365845,
                1.9521970748901367,
                1.9521971940994263
            ],
            "translation" : [
                0.04186288267374039,
                -0.39976853132247925,
                0.8716064095497131
            ]
        },
        {
            "children" : [
                4,
                5
            ],
            "mesh" : 0,
            "name" : "Cube.008",
            "rotation" : [
                -0.07693979144096375,
                0.005635244771838188,
                -0.006578237749636173,
                -0.996998131275177
            ]
        }
    ],
    "cameras" : [
        {
            "name" : "Camera",
            "perspective" : {
                "aspectRatio" : 1.7777777777777777,
                "yfov" : 0.39959652046304894,
                "zfar" : 100,
                "znear" : 0.10000000149011612
            },
            "type" : "perspective"
        }
    ],
    "animations" : [
        {
            "channels" : [
                {
                    "sampler" : 0,
                    "target" : {
                        "node" : 6,
                        "path" : "rotation"
                    }
                }
            ],
            "name" : "CubeAction.009",
            "samplers" : [
                {
                    "input" : 5,
                    "interpolation" : "LINEAR",
                    "output" : 6
                }
            ]
        }
    ],
    "materials" : [
        {
            "alphaMode" : "BLEND",
            "doubleSided" : true,
            "name" : "Mirror",
            "pbrMetallicRoughness" : {
                "baseColorTexture" : {
                    "index" : 0,
                    "texCoord" : 0
                },
                "metallicRoughnessTexture" : {
                    "index" : 1,
                    "texCoord" : 0
                }
            }
        }
    ],
    "meshes" : [
        {
            "name" : "Cube.008",
            "primitives" : [
                {
                    "attributes" : {
                        "POSITION" : 0,
                        "NORMAL" : 1,
                        "TANGENT" : 2,
                        "TEXCOORD_0" : 3
                    },
                    "indices" : 4,
                    "material" : 0
                }
            ]
        }
    ],
    "textures" : [
        {
            "sampler" : 0,
            "source" : 0
        },
        {
            "sampler" : 0,
            "source" : 1
        }
    ],
    "images" : [
        {
            "bufferView" : 5,
            "mimeType" : "image/png",
            "name" : "Miror_col"
        },
        {
            "bufferView" : 6,
            "mimeType" : "image/png",
            "name" : "Miror_glos"
        }
    ],
    "accessors" : [
        {
            "bufferView" : 0,
            "componentType" : 5126,
            "count" : 120,
            "max" : [
                0.027242550626397133,
                0.9084483981132507,
                2.7213706970214844
            ],
            "min" : [
                -0.02721330150961876,
                -1.3689106702804565,
                -0.9073508977890015
            ],
            "type" : "VEC3"
        },
        {
            "bufferView" : 1,
            "componentType" : 5126,
            "count" : 120,
            "type" : "VEC3"
        },
        {
            "bufferView" : 2,
            "componentType" : 5126,
            "count" : 120,
            "type" : "VEC4"
        },
        {
            "bufferView" : 3,
            "componentType" : 5126,
            "count" : 120,
            "type" : "VEC2"
        },
        {
            "bufferView" : 4,
            "componentType" : 5123,
            "count" : 324,
            "type" : "SCALAR"
        },
        {
            "bufferView" : 7,
            "componentType" : 5126,
            "count" : 144,
            "max" : [
                59.625
            ],
            "min" : [
                0.041666666666666664
            ],
            "type" : "SCALAR"
        },
        {
            "bufferView" : 8,
            "componentType" : 5126,
            "count" : 144,
            "type" : "VEC4"
        }
    ],
    "bufferViews" : [
        {
            "buffer" : 0,
            "byteLength" : 1440,
            "byteOffset" : 0
        },
        {
            "buffer" : 0,
            "byteLength" : 1440,
            "byteOffset" : 1440
        },
        {
            "buffer" : 0,
            "byteLength" : 1920,
            "byteOffset" : 2880
        },
        {
            "buffer" : 0,
            "byteLength" : 960,
            "byteOffset" : 4800
        },
        {
            "buffer" : 0,
            "byteLength" : 648,
            "byteOffset" : 5760
        },
        {
            "buffer" : 0,
            "byteLength" : 1883,
            "byteOffset" : 6408
        },
        {
            "buffer" : 0,
            "byteLength" : 510,
            "byteOffset" : 8292
        },
        {
            "buffer" : 0,
            "byteLength" : 576,
            "byteOffset" : 8804
        },
        {
            "buffer" : 0,
            "byteLength" : 2304,
            "byteOffset" : 9380
        }
    ],
    "samplers" : [
        {
            "magFilter" : 9729,
            "minFilter" : 9986
        }
    ],
    "buffers" : [
        {
            "byteLength" : 11684,
            "uri" : "data:application/octet-stream;base64,"
        }
    ]
}
