{
    "asset" : {
        "copyright" : "Lucis",
        "generator" : "Khronos glTF Blender I/O v1.4.40",
        "version" : "2.0"
    },
    "extensionsUsed" : [
        "KHR_lights_punctual"
    ],
    "extensionsRequired" : [
        "KHR_lights_punctual"
    ],
    "extensions" : {
        "KHR_lights_punctual" : {
            "lights" : [
                {
                    "color" : [
                        0.47703078389167786,
                        0.4216821491718292,
                        1
                    ],
                    "intensity" : 30000,
                    "spot" : {
                        "innerConeAngle" : 0.24093780798340525,
                        "outerConeAngle" : 0.27488937973976135
                    },
                    "type" : "spot",
                    "name" : "Light"
                }
            ]
        }
    },
    "scene" : 0,
    "scenes" : [
        {
            "extras" : {
                "glTF2ExportSettings" : {
                    "export_apply" : 1,
                    "export_cameras" : 1,
                    "export_copyright" : "Lucis",
                    "export_current_frame" : 1,
                    "export_extras" : 1,
                    "export_format" : "GLTF_EMBEDDED",
                    "export_frame_step" : 10,
                    "export_lights" : 1,
                    "export_skins" : 1,
                    "export_tangents" : 1,
                    "export_texture_dir" : "",
                    "export_yup" : 1
                }
            },
            "name" : "Scene",
            "nodes" : [
                2,
                4,
                6
            ]
        }
    ],
    "nodes" : [
        {
            "name" : "ReflectionPlane",
            "rotation" : [
                0,
                0,
                -0.7071068286895752,
                0.7071068286895752
            ],
            "scale" : [
                0.8922327160835266,
                0.8093001842498779,
                0.8827970623970032
            ],
            "translation" : [
                0.037762343883514404,
                0.021239284425973892,
                -0.002301580738276243
            ]
        },
        {
            "name" : "ReflectionPlane.003",
            "rotation" : [
                0,
                0,
                0.7071068286895752,
                0.7071068286895752
            ],
            "scale" : [
                0.8879925608634949,
                0.8879925012588501,
                0.8879924416542053
            ],
            "translation" : [
                -0.034340325742959976,
                0,
                0
            ]
        },
        {
            "children" : [
                0,
                1
            ],
            "mesh" : 0,
            "name" : "Cube.010",
            "rotation" : [
                -0.15621119737625122,
                -0.34551480412483215,
                0.5640358328819275,
                0.7335401177406311
            ]
        },
        {
            "extensions" : {
                "KHR_lights_punctual" : {
                    "light" : 0
                }
            },
            "name" : "Light_Orientation",
            "rotation" : [
                -0.7071067690849304,
                0,
                0,
                0.7071067690849304
            ]
        },
        {
            "children" : [
                3
            ],
            "name" : "Light",
            "rotation" : [
                0.16907575726509094,
                0.7558803558349609,
                -0.27217137813568115,
                0.570947527885437
            ],
            "translation" : [
                22.8317928314209,
                32.21864318847656,
                -8.237261772155762
            ]
        },
        {
            "camera" : 0,
            "name" : "Camera_Orientation",
            "rotation" : [
                -0.7071067690849304,
                0,
                0,
                0.7071067690849304
            ]
        },
        {
            "children" : [
                5
            ],
            "name" : "Camera",
            "rotation" : [
                0.501563310623169,
                0.5015633702278137,
                -0.4984317719936371,
                0.4984317719936371
            ],
            "translation" : [
                33.13811492919922,
                0,
                0
            ]
        }
    ],
    "cameras" : [
        {
            "name" : "Camera",
            "perspective" : {
                "aspectRatio" : 1.7777777777777777,
                "yfov" : 0.39959652046304894,
                "zfar" : 100,
                "znear" : 0.10000000149011612
            },
            "type" : "perspective"
        }
    ],
    "animations" : [
        {
            "channels" : [
                {
                    "sampler" : 0,
                    "target" : {
                        "node" : 2,
                        "path" : "rotation"
                    }
                }
            ],
            "name" : "CubeAction.001",
            "samplers" : [
                {
                    "input" : 5,
                    "interpolation" : "LINEAR",
                    "output" : 6
                }
            ]
        }
    ],
    "materials" : [
        {
            "alphaMode" : "BLEND",
            "doubleSided" : true,
            "name" : "Mirror",
            "pbrMetallicRoughness" : {
                "baseColorTexture" : {
                    "index" : 0,
                    "texCoord" : 0
                },
                "metallicRoughnessTexture" : {
                    "index" : 1,
                    "texCoord" : 0
                }
            }
        }
    ],
    "meshes" : [
        {
            "name" : "Cube",
            "primitives" : [
                {
                    "attributes" : {
                        "POSITION" : 0,
                        "NORMAL" : 1,
                        "TANGENT" : 2,
                        "TEXCOORD_0" : 3
                    },
                    "indices" : 4,
                    "material" : 0
                }
            ]
        }
    ],
    "textures" : [
        {
            "sampler" : 0,
            "source" : 0
        },
        {
            "sampler" : 0,
            "source" : 1
        }
    ],
    "images" : [
        {
            "bufferView" : 5,
            "mimeType" : "image/png",
            "name" : "Miror_col"
        },
        {
            "bufferView" : 6,
            "mimeType" : "image/png",
            "name" : "Miror_glos"
        }
    ],
    "accessors" : [
        {
            "bufferView" : 0,
            "componentType" : 5126,
            "count" : 121,
            "max" : [
                0.02429443784058094,
                0.8110092282295227,
                0.8110091686248779
            ],
            "min" : [
                -0.02429443784058094,
                -0.8110091686248779,
                -0.8110091686248779
            ],
            "type" : "VEC3"
        },
        {
            "bufferView" : 1,
            "componentType" : 5126,
            "count" : 121,
            "type" : "VEC3"
        },
        {
            "bufferView" : 2,
            "componentType" : 5126,
            "count" : 121,
            "type" : "VEC4"
        },
        {
            "bufferView" : 3,
            "componentType" : 5126,
            "count" : 121,
            "type" : "VEC2"
        },
        {
            "bufferView" : 4,
            "componentType" : 5123,
            "count" : 330,
            "type" : "SCALAR"
        },
        {
            "bufferView" : 7,
            "componentType" : 5126,
            "count" : 144,
            "max" : [
                59.625
            ],
            "min" : [
                0.041666666666666664
            ],
            "type" : "SCALAR"
        },
        {
            "bufferView" : 8,
            "componentType" : 5126,
            "count" : 144,
            "type" : "VEC4"
        }
    ],
    "bufferViews" : [
        {
            "buffer" : 0,
            "byteLength" : 1452,
            "byteOffset" : 0
        },
        {
            "buffer" : 0,
            "byteLength" : 1452,
            "byteOffset" : 1452
        },
        {
            "buffer" : 0,
            "byteLength" : 1936,
            "byteOffset" : 2904
        },
        {
            "buffer" : 0,
            "byteLength" : 968,
            "byteOffset" : 4840
        },
        {
            "buffer" : 0,
            "byteLength" : 660,
            "byteOffset" : 5808
        },
        {
            "buffer" : 0,
            "byteLength" : 1883,
            "byteOffset" : 6468
        },
        {
            "buffer" : 0,
            "byteLength" : 510,
            "byteOffset" : 8352
        },
        {
            "buffer" : 0,
            "byteLength" : 576,
            "byteOffset" : 8864
        },
        {
            "buffer" : 0,
            "byteLength" : 2304,
            "byteOffset" : 9440
        }
    ],
    "samplers" : [
        {
            "magFilter" : 9729,
            "minFilter" : 9986
        }
    ],
    "buffers" : [
        {
            "byteLength" : 11744,
            "uri" : "data:application/octet-stream;base64,"
        }
    ]
}
