{
    "asset" : {
        "copyright" : "Lucis",
        "generator" : "Khronos glTF Blender I/O v1.4.40",
        "version" : "2.0"
    },
    "extensionsUsed" : [
        "KHR_lights_punctual"
    ],
    "extensionsRequired" : [
        "KHR_lights_punctual"
    ],
    "extensions" : {
        "KHR_lights_punctual" : {
            "lights" : [
                {
                    "color" : [
                        0.47703078389167786,
                        0.4216821491718292,
                        1
                    ],
                    "intensity" : 30000,
                    "spot" : {
                        "innerConeAngle" : 0.24093780798340525,
                        "outerConeAngle" : 0.27488937973976135
                    },
                    "type" : "spot",
                    "name" : "Light"
                }
            ]
        }
    },
    "scene" : 0,
    "scenes" : [
        {
            "extras" : {
                "glTF2ExportSettings" : {
                    "export_apply" : 1,
                    "export_cameras" : 1,
                    "export_copyright" : "Lucis",
                    "export_current_frame" : 1,
                    "export_extras" : 1,
                    "export_format" : "GLTF_EMBEDDED",
                    "export_frame_step" : 10,
                    "export_lights" : 1,
                    "export_skins" : 1,
                    "export_tangents" : 1,
                    "export_texture_dir" : "",
                    "export_yup" : 1
                }
            },
            "name" : "Scene",
            "nodes" : [
                1,
                3,
                6
            ]
        }
    ],
    "nodes" : [
        {
            "extensions" : {
                "KHR_lights_punctual" : {
                    "light" : 0
                }
            },
            "name" : "Light_Orientation",
            "rotation" : [
                -0.7071067690849304,
                0,
                0,
                0.7071067690849304
            ]
        },
        {
            "children" : [
                0
            ],
            "name" : "Light",
            "rotation" : [
                0.16907575726509094,
                0.7558803558349609,
                -0.27217137813568115,
                0.570947527885437
            ],
            "translation" : [
                22.8317928314209,
                32.21864318847656,
                -8.237261772155762
            ]
        },
        {
            "camera" : 0,
            "name" : "Camera_Orientation",
            "rotation" : [
                -0.7071067690849304,
                0,
                0,
                0.7071067690849304
            ]
        },
        {
            "children" : [
                2
            ],
            "name" : "Camera",
            "rotation" : [
                0.501563310623169,
                0.5015633702278137,
                -0.4984317719936371,
                0.4984317719936371
            ],
            "translation" : [
                33.13811492919922,
                0,
                0
            ]
        },
        {
            "name" : "ReflectionPlane.012",
            "rotation" : [
                0.7071068286895752,
                0.7071067094802856,
                0,
                2.275846071597698e-07
            ],
            "scale" : [
                1.5153895616531372,
                1.5153895616531372,
                1.5153895616531372
            ],
            "translation" : [
                0.03940021991729736,
                0,
                0
            ]
        },
        {
            "name" : "ReflectionPlane.013",
            "rotation" : [
                0.7071068286895752,
                -0.7071068286895752,
                0,
                1.657674033594958e-07
            ],
            "scale" : [
                1.5153895616531372,
                1.5153895616531372,
                1.5153895616531372
            ],
            "translation" : [
                -0.04494953155517578,
                0,
                0
            ]
        },
        {
            "children" : [
                4,
                5
            ],
            "mesh" : 0,
            "name" : "Cube.001",
            "rotation" : [
                1,
                0,
                0,
                -2.781418402264535e-07
            ]
        }
    ],
    "cameras" : [
        {
            "name" : "Camera",
            "perspective" : {
                "aspectRatio" : 1.7777777777777777,
                "yfov" : 0.39959652046304894,
                "zfar" : 100,
                "znear" : 0.10000000149011612
            },
            "type" : "perspective"
        }
    ],
    "animations" : [
        {
            "channels" : [
                {
                    "sampler" : 0,
                    "target" : {
                        "node" : 6,
                        "path" : "rotation"
                    }
                }
            ],
            "name" : "CubeAction.002",
            "samplers" : [
                {
                    "input" : 5,
                    "interpolation" : "LINEAR",
                    "output" : 6
                }
            ]
        }
    ],
    "materials" : [
        {
            "alphaMode" : "BLEND",
            "doubleSided" : true,
            "name" : "Mirror",
            "pbrMetallicRoughness" : {
                "baseColorTexture" : {
                    "index" : 0,
                    "texCoord" : 0
                },
                "metallicRoughnessTexture" : {
                    "index" : 1,
                    "texCoord" : 0
                }
            }
        }
    ],
    "meshes" : [
        {
            "name" : "Cube.001",
            "primitives" : [
                {
                    "attributes" : {
                        "POSITION" : 0,
                        "NORMAL" : 1,
                        "TANGENT" : 2,
                        "TEXCOORD_0" : 3
                    },
                    "indices" : 4,
                    "material" : 0
                }
            ]
        }
    ],
    "textures" : [
        {
            "sampler" : 0,
            "source" : 0
        },
        {
            "sampler" : 0,
            "source" : 1
        }
    ],
    "images" : [
        {
            "bufferView" : 5,
            "mimeType" : "image/png",
            "name" : "Miror_col"
        },
        {
            "bufferView" : 6,
            "mimeType" : "image/png",
            "name" : "Miror_glos"
        }
    ],
    "accessors" : [
        {
            "bufferView" : 0,
            "componentType" : 5126,
            "count" : 156,
            "max" : [
                0.0282774455845356,
                1.3662623167037964,
                0.6824992895126343
            ],
            "min" : [
                -0.03284261375665665,
                -1.3674230575561523,
                -0.6824962496757507
            ],
            "type" : "VEC3"
        },
        {
            "bufferView" : 1,
            "componentType" : 5126,
            "count" : 156,
            "type" : "VEC3"
        },
        {
            "bufferView" : 2,
            "componentType" : 5126,
            "count" : 156,
            "type" : "VEC4"
        },
        {
            "bufferView" : 3,
            "componentType" : 5126,
            "count" : 156,
            "type" : "VEC2"
        },
        {
            "bufferView" : 4,
            "componentType" : 5123,
            "count" : 402,
            "type" : "SCALAR"
        },
        {
            "bufferView" : 7,
            "componentType" : 5126,
            "count" : 144,
            "max" : [
                59.625
            ],
            "min" : [
                0.041666666666666664
            ],
            "type" : "SCALAR"
        },
        {
            "bufferView" : 8,
            "componentType" : 5126,
            "count" : 144,
            "type" : "VEC4"
        }
    ],
    "bufferViews" : [
        {
            "buffer" : 0,
            "byteLength" : 1872,
            "byteOffset" : 0
        },
        {
            "buffer" : 0,
            "byteLength" : 1872,
            "byteOffset" : 1872
        },
        {
            "buffer" : 0,
            "byteLength" : 2496,
            "byteOffset" : 3744
        },
        {
            "buffer" : 0,
            "byteLength" : 1248,
            "byteOffset" : 6240
        },
        {
            "buffer" : 0,
            "byteLength" : 804,
            "byteOffset" : 7488
        },
        {
            "buffer" : 0,
            "byteLength" : 1883,
            "byteOffset" : 8292
        },
        {
            "buffer" : 0,
            "byteLength" : 510,
            "byteOffset" : 10176
        },
        {
            "buffer" : 0,
            "byteLength" : 576,
            "byteOffset" : 10688
        },
        {
            "buffer" : 0,
            "byteLength" : 2304,
            "byteOffset" : 11264
        }
    ],
    "samplers" : [
        {
            "magFilter" : 9729,
            "minFilter" : 9986
        }
    ],
    "buffers" : [
        {
            "byteLength" : 13568,
            "uri" : "data:application/octet-stream;base64,"
        }
    ]
}
